<mxfile host="www.draw.io" modified="2020-04-15T01:46:34.402Z" agent="5.0 (Macintosh; Intel Mac OS X 10_13_6) AppleWebKit/537.36 (KHTML, like Gecko) Chrome/80.0.3987.163 Safari/537.36" etag="_t_YeiT1TuhSeBynRSVm" version="12.9.9" type="github">
  <diagram id="YjKeF_FXg8-f9JpqsyVf" name="Page-1">
    <mxGraphModel dx="893" dy="498" grid="1" gridSize="10" guides="1" tooltips="1" connect="1" arrows="1" fold="1" page="1" pageScale="1" pageWidth="827" pageHeight="1169" math="0" shadow="0">
      <root>
        <mxCell id="0" />
        <mxCell id="1" parent="0" />
        <mxCell id="T7OsTbxaAlnbgz34bx-q-1" value="PAD类别 IPad&lt;br&gt;CBOH_IPAD_3CH" style="rounded=1;whiteSpace=wrap;html=1;" parent="1" vertex="1">
          <mxGeometry x="637" y="410" width="146" height="60" as="geometry" />
        </mxCell>
        <mxCell id="T7OsTbxaAlnbgz34bx-q-2" value="菜谱明细之适用门店 ItemprgFirm&lt;br&gt;CBOH_ITEMPRGFIRM_3CH" style="rounded=1;whiteSpace=wrap;html=1;" parent="1" vertex="1">
          <mxGeometry x="40" y="300" width="210" height="60" as="geometry" />
        </mxCell>
        <mxCell id="T7OsTbxaAlnbgz34bx-q-3" value="菜谱明细之PAD类别 ItemprgPad&lt;br&gt;CBOH_ITEMPRGPAD_3CH" style="rounded=1;whiteSpace=wrap;html=1;" parent="1" vertex="1">
          <mxGeometry x="610" y="300" width="190" height="60" as="geometry" />
        </mxCell>
        <mxCell id="T7OsTbxaAlnbgz34bx-q-4" value="菜品 Pubitem&lt;br&gt;CBOH_PUBITEM_3CH" style="rounded=1;whiteSpace=wrap;html=1;" parent="1" vertex="1">
          <mxGeometry x="67" y="40" width="156" height="60" as="geometry" />
        </mxCell>
        <mxCell id="T7OsTbxaAlnbgz34bx-q-6" value="菜谱方案 ItemPrgm&lt;br&gt;CBOH_ITEMPRGM_3CH" style="rounded=1;whiteSpace=wrap;html=1;" parent="1" vertex="1">
          <mxGeometry x="350" y="230" width="170" height="60" as="geometry" />
        </mxCell>
        <mxCell id="T7OsTbxaAlnbgz34bx-q-15" value="菜谱明细之套餐 ItemprgPackage&lt;br&gt;CBOH_ITEMPRGPACKAGE_3CH" style="rounded=1;whiteSpace=wrap;html=1;" parent="1" vertex="1">
          <mxGeometry x="610" y="160" width="197.5" height="55" as="geometry" />
        </mxCell>
        <mxCell id="T7OsTbxaAlnbgz34bx-q-16" value="菜谱明细之菜品 Itemprgd&lt;br&gt;CBOH_ITEMPRGD_3CH" style="rounded=1;whiteSpace=wrap;html=1;" parent="1" vertex="1">
          <mxGeometry x="40" y="160" width="210" height="60" as="geometry" />
        </mxCell>
        <mxCell id="T7OsTbxaAlnbgz34bx-q-26" value="" style="endArrow=none;html=1;" parent="1" source="T7OsTbxaAlnbgz34bx-q-49" edge="1">
          <mxGeometry width="50" height="50" relative="1" as="geometry">
            <mxPoint x="823" y="260" as="sourcePoint" />
            <mxPoint x="709" y="160" as="targetPoint" />
          </mxGeometry>
        </mxCell>
        <mxCell id="T7OsTbxaAlnbgz34bx-q-48" value="" style="endArrow=none;html=1;" parent="1" edge="1">
          <mxGeometry width="50" height="50" relative="1" as="geometry">
            <mxPoint x="145" y="100" as="sourcePoint" />
            <mxPoint x="145" y="160" as="targetPoint" />
          </mxGeometry>
        </mxCell>
        <mxCell id="T7OsTbxaAlnbgz34bx-q-49" value="套餐 PubPack&lt;br&gt;CBOH_PUBPACK_3CH" style="rounded=1;whiteSpace=wrap;html=1;" parent="1" vertex="1">
          <mxGeometry x="612.5" y="40" width="195" height="60" as="geometry" />
        </mxCell>
        <mxCell id="T7OsTbxaAlnbgz34bx-q-53" value="" style="endArrow=none;html=1;" parent="1" edge="1">
          <mxGeometry width="50" height="50" relative="1" as="geometry">
            <mxPoint x="710.2666666666665" y="360" as="sourcePoint" />
            <mxPoint x="710" y="410" as="targetPoint" />
          </mxGeometry>
        </mxCell>
        <mxCell id="T7OsTbxaAlnbgz34bx-q-54" value="门店 Store&lt;br&gt;CBOH_STORE_3CH" style="rounded=1;whiteSpace=wrap;html=1;" parent="1" vertex="1">
          <mxGeometry x="77" y="410" width="146" height="60" as="geometry" />
        </mxCell>
        <mxCell id="T7OsTbxaAlnbgz34bx-q-55" value="" style="endArrow=none;html=1;" parent="1" edge="1">
          <mxGeometry width="50" height="50" relative="1" as="geometry">
            <mxPoint x="144.76666666666642" y="360" as="sourcePoint" />
            <mxPoint x="144.5" y="410" as="targetPoint" />
          </mxGeometry>
        </mxCell>
        <mxCell id="5S-3OVf6hgl2hG8z5zkm-1" value="1" style="endArrow=open;html=1;endSize=12;startArrow=diamondThin;startSize=14;startFill=1;edgeStyle=orthogonalEdgeStyle;align=left;verticalAlign=bottom;exitX=-0.007;exitY=0.893;exitDx=0;exitDy=0;exitPerimeter=0;entryX=1;entryY=0.5;entryDx=0;entryDy=0;" parent="1" source="T7OsTbxaAlnbgz34bx-q-6" target="T7OsTbxaAlnbgz34bx-q-2" edge="1">
          <mxGeometry x="0.0359" y="40" relative="1" as="geometry">
            <mxPoint x="330" y="290" as="sourcePoint" />
            <mxPoint x="290" y="340" as="targetPoint" />
            <mxPoint as="offset" />
          </mxGeometry>
        </mxCell>
        <mxCell id="5S-3OVf6hgl2hG8z5zkm-2" value="1" style="endArrow=open;html=1;endSize=12;startArrow=diamondThin;startSize=14;startFill=1;edgeStyle=orthogonalEdgeStyle;align=left;verticalAlign=bottom;entryX=-0.002;entryY=0.62;entryDx=0;entryDy=0;entryPerimeter=0;exitX=1.005;exitY=0.907;exitDx=0;exitDy=0;exitPerimeter=0;" parent="1" source="T7OsTbxaAlnbgz34bx-q-6" target="T7OsTbxaAlnbgz34bx-q-3" edge="1">
          <mxGeometry x="-0.0853" y="-39" relative="1" as="geometry">
            <mxPoint x="400" y="320" as="sourcePoint" />
            <mxPoint x="490" y="290" as="targetPoint" />
            <Array as="points">
              <mxPoint x="560" y="284" />
              <mxPoint x="560" y="337" />
            </Array>
            <mxPoint as="offset" />
          </mxGeometry>
        </mxCell>
        <mxCell id="5S-3OVf6hgl2hG8z5zkm-4" value="1" style="endArrow=open;html=1;endSize=12;startArrow=diamondThin;startSize=14;startFill=1;edgeStyle=orthogonalEdgeStyle;align=left;verticalAlign=bottom;entryX=1;entryY=0.5;entryDx=0;entryDy=0;" parent="1" target="T7OsTbxaAlnbgz34bx-q-16" edge="1">
          <mxGeometry x="-0.7143" relative="1" as="geometry">
            <mxPoint x="350" y="237.5" as="sourcePoint" />
            <mxPoint x="310" y="137.5" as="targetPoint" />
            <mxPoint as="offset" />
          </mxGeometry>
        </mxCell>
        <mxCell id="5S-3OVf6hgl2hG8z5zkm-5" value="1" style="endArrow=open;html=1;endSize=12;startArrow=diamondThin;startSize=14;startFill=1;edgeStyle=orthogonalEdgeStyle;align=left;verticalAlign=bottom;exitX=1.009;exitY=0.093;exitDx=0;exitDy=0;exitPerimeter=0;entryX=0;entryY=0.5;entryDx=0;entryDy=0;" parent="1" source="T7OsTbxaAlnbgz34bx-q-6" target="T7OsTbxaAlnbgz34bx-q-15" edge="1">
          <mxGeometry x="-1" y="3" relative="1" as="geometry">
            <mxPoint x="460" y="180" as="sourcePoint" />
            <mxPoint x="600" y="200" as="targetPoint" />
          </mxGeometry>
        </mxCell>
      </root>
    </mxGraphModel>
  </diagram>
</mxfile>
